# xmcd
#
# Track frame offsets:
#	150
#	12729
#	25134
#	39289
#	52280
#	63184
#	78278
#	90942
#	104428
#	118289
#	131299
#	146060
#	159472
#	173050
#	186986
#	201225
#	215209
#	227437
#	239307
#	255949
#	269451
#	281789
#	295881
#	311322
#	321798
#
# Disc length: 4436
#
# Revision: 6
# Processed by: cddbd v1.5.1PL0 Copyright (c) Steve Scherf et al.
# Submitted via: CDex 1.51
# Normalized: r5:DSETVAR1,TDELIM( - )
#
DISCID=6a115219
DTITLE=Various Artist - 25 Schlager Diamanten - CD 2
DYEAR=1900
DGENRE=Oldies
TTITLE0=Bata Illic - Michaela
TTITLE1=Graham Bonney - Ich hab' die ganze Nacht nur noch an Dich gedacht
TTITLE2=Gus Backus - Diridari Diridaridum
TTITLE3=Die Balla-Männer - Hola Ballermann
TTITLE4=Peter Orloff - Ein Leben aus Liebe
TTITLE5=Christina Falk - Ich muß dich wiedersehn
TTITLE6=Angele Durand - Chancon d'amour
TTITLE7=Tennessee Ernest G. - Lieben, Leben und versteh'n
TTITLE8=Günter Wewel - Der Duisburger Hafen
TTITLE9=Gebrüder Blattschuss - Nie wieder Ballermann
TTITLE10=Elfi Graf - Die Stunde der Wahrheit
TTITLE11=Kurt Adolf  Thelen - Ein kleines Kompliment
TTITLE12=Nina Lizell - Ich hab' ein Herz voller Liebe
TTITLE13=Wolfgang Sauer - Danke schön
TTITLE14=Billy Mo - Wenn der Papa so von der Liebe träumt
TTITLE15=Anna - Willst Du mit mir
TTITLE16=Romanticas - Ich schenk Dir rote Rosen
TTITLE17=Werner Leismann - Mendocino
TTITLE18=Nina and Mike - Good-Bye mon amie
TTITLE19=Graham Bonney - Tennis made in Germany
TTITLE20=Herbert Ernst Groh - Auf der Heide
TTITLE21=Freddy Breck - Tanz mit mir durch die Nacht
TTITLE22=Renate and Werner Leismann - Ich sag 'Auf Wiedersehn'
TTITLE23=Die Jacob Sisters - Lieber vollschlank sein
TTITLE24=Siw Malmkvist - Liebeskummer lohnt sich nicht
EXTD=
EXTT0=
EXTT1=
EXTT2=
EXTT3=
EXTT4=
EXTT5=
EXTT6=
EXTT7=
EXTT8=
EXTT9=
EXTT10=
EXTT11=
EXTT12=
EXTT13=
EXTT14=
EXTT15=
EXTT16=
EXTT17=
EXTT18=
EXTT19=
EXTT20=
EXTT21=
EXTT22=
EXTT23=
EXTT24=
PLAYORDER=
